<svg width="92" height="21" viewBox="0 0 92 21" fill="none" xmlns="http://www.w3.org/2000/svg">
<path d="M2.08301 0.599609H16.6094C17.7047 0.599609 18.5925 1.48778 18.5928 2.58301V18.417C18.5925 19.5122 17.7047 20.4004 16.6094 20.4004H2.08301C0.987924 20.4002 0.099836 19.5121 0.0996094 18.417V2.58301C0.0998362 1.48792 0.987924 0.599836 2.08301 0.599609Z" fill="white" stroke="url(#paint0_linear_359_12486)" stroke-width="0.2"/>
<path d="M11.4611 10.5001H5.47842C5.47842 10.5001 4.57241 10.6511 4.57241 12.0335V20.5001H2.49805V11.2075C2.49805 9.74506 4.06921 8.4038 5.47842 8.46986L11.4611 8.46533V10.5001Z" fill="url(#paint1_linear_359_12486)"/>
<path d="M7.13193 13.1799C7.15008 13.1621 7.17148 13.1478 7.19497 13.138C7.26268 13.1139 7.3348 13.1048 7.40637 13.1112C8.91902 13.1448 10.634 13.5325 12.0292 12.7484C12.6993 12.3709 13.2418 11.8402 13.5717 11.141C14.2267 9.75333 13.9919 7.98059 12.9115 6.87074C11.7843 5.71256 10.2078 5.8613 8.72536 5.83714C7.13419 5.81109 5.54076 5.83299 3.94922 5.83261V3.44378L9.00773 3.40301C10.0791 3.39471 11.1738 3.38942 12.1897 3.72993C14.0515 4.35356 15.3739 6.06251 15.9345 7.89376C16.2114 8.81056 16.2669 9.77997 16.0964 10.7224C15.9171 11.7107 15.4411 12.5589 14.7997 13.3226C14.2082 14.0278 13.4883 14.6371 12.6601 15.0463C11.7518 15.4951 10.8197 15.5884 9.82049 15.5914C8.97187 15.594 8.12174 15.5536 7.27462 15.5536C7.21913 15.5536 7.16326 15.5559 7.10815 15.5536C7.10412 14.9066 7.10022 14.2593 7.09644 13.6118C7.09682 13.4785 7.02698 13.2841 7.13193 13.1799Z" fill="url(#paint2_linear_359_12486)"/>
<path d="M25.5783 16V5.81818H29.5953C30.3676 5.81818 31.0255 5.96567 31.5691 6.26065C32.1126 6.55232 32.5269 6.95833 32.812 7.47869C33.1003 7.99574 33.2445 8.59233 33.2445 9.26847C33.2445 9.9446 33.0987 10.5412 32.807 11.0582C32.5153 11.5753 32.0927 11.978 31.5392 12.2663C30.9891 12.5547 30.3229 12.6989 29.5407 12.6989H26.9803V10.9737H29.1926C29.6069 10.9737 29.9483 10.9025 30.2168 10.7599C30.4886 10.6141 30.6908 10.4136 30.8233 10.1584C30.9592 9.89986 31.0272 9.60322 31.0272 9.26847C31.0272 8.9304 30.9592 8.63542 30.8233 8.38352C30.6908 8.12831 30.4886 7.93111 30.2168 7.7919C29.945 7.64938 29.6003 7.57812 29.1827 7.57812H27.731V16H25.5783ZM34.6428 16V5.81818H38.6598C39.4287 5.81818 40.085 5.95573 40.6286 6.23082C41.1754 6.5026 41.5914 6.88873 41.8764 7.3892C42.1648 7.88636 42.3089 8.47135 42.3089 9.14418C42.3089 9.82031 42.1631 10.402 41.8714 10.8892C41.5798 11.3731 41.1572 11.7443 40.6037 12.0028C40.0535 12.2614 39.3873 12.3906 38.6051 12.3906H35.9155V10.6605H38.2571C38.6681 10.6605 39.0095 10.6042 39.2812 10.4915C39.553 10.3788 39.7552 10.2098 39.8878 9.98438C40.0237 9.759 40.0916 9.47893 40.0916 9.14418C40.0916 8.80611 40.0237 8.52107 39.8878 8.28906C39.7552 8.05705 39.5514 7.88139 39.2763 7.76207C39.0045 7.63944 38.6615 7.57812 38.2472 7.57812H36.7955V16H34.6428ZM40.1413 11.3665L42.6719 16H40.2955L37.8196 11.3665H40.1413ZM53.1868 10.9091C53.1868 12.0194 52.9763 12.964 52.5554 13.7429C52.1378 14.5218 51.5677 15.1167 50.8452 15.5277C50.1259 15.9354 49.3172 16.1392 48.419 16.1392C47.5142 16.1392 46.7022 15.9337 45.983 15.5227C45.2637 15.1117 44.6953 14.5168 44.2777 13.7379C43.8601 12.959 43.6513 12.0161 43.6513 10.9091C43.6513 9.79877 43.8601 8.85417 44.2777 8.07528C44.6953 7.2964 45.2637 6.70312 45.983 6.29545C46.7022 5.88447 47.5142 5.67898 48.419 5.67898C49.3172 5.67898 50.1259 5.88447 50.8452 6.29545C51.5677 6.70312 52.1378 7.2964 52.5554 8.07528C52.9763 8.85417 53.1868 9.79877 53.1868 10.9091ZM51.0043 10.9091C51.0043 10.1899 50.8965 9.58333 50.6811 9.08949C50.469 8.59564 50.169 8.22112 49.7812 7.96591C49.3935 7.7107 48.9394 7.5831 48.419 7.5831C47.8987 7.5831 47.4446 7.7107 47.0568 7.96591C46.669 8.22112 46.3674 8.59564 46.152 9.08949C45.9399 9.58333 45.8338 10.1899 45.8338 10.9091C45.8338 11.6283 45.9399 12.2348 46.152 12.7287C46.3674 13.2225 46.669 13.5971 47.0568 13.8523C47.4446 14.1075 47.8987 14.2351 48.419 14.2351C48.9394 14.2351 49.3935 14.1075 49.7812 13.8523C50.169 13.5971 50.469 13.2225 50.6811 12.7287C50.8965 12.2348 51.0043 11.6283 51.0043 10.9091ZM54.7814 16V5.81818H61.5229V7.59304H56.9341V10.0192H61.0755V11.794H56.9341V16H54.7814ZM62.9709 16V5.81818H65.1236V14.2251H69.4886V16H62.9709ZM72.929 16H70.6222L74.1371 5.81818H76.9112L80.4212 16H78.1143L75.5639 8.14489H75.4844L72.929 16ZM72.7848 11.9979H78.2337V13.6783H72.7848V11.9979ZM87.9196 9.10938C87.85 8.86742 87.7522 8.65365 87.6262 8.46804C87.5003 8.27912 87.3462 8.12003 87.1639 7.99077C86.9849 7.85819 86.7794 7.7571 86.5474 7.6875C86.3187 7.6179 86.0652 7.5831 85.7868 7.5831C85.2664 7.5831 84.809 7.71236 84.4146 7.97088C84.0235 8.2294 83.7186 8.60559 83.4998 9.09943C83.2811 9.58996 83.1717 10.1899 83.1717 10.8991C83.1717 11.6084 83.2794 12.2116 83.4949 12.7088C83.7103 13.206 84.0152 13.5855 84.4096 13.8473C84.804 14.1058 85.2697 14.2351 85.8066 14.2351C86.2939 14.2351 86.7098 14.1489 87.0545 13.9766C87.4025 13.8009 87.6677 13.554 87.85 13.2358C88.0356 12.9176 88.1284 12.5414 88.1284 12.1072L88.5659 12.1719H85.9409V10.5511H90.2015V11.8338C90.2015 12.7287 90.0126 13.4976 89.6348 14.1406C89.2569 14.7803 88.7366 15.2741 88.0737 15.6222C87.4108 15.9669 86.6518 16.1392 85.7967 16.1392C84.8422 16.1392 84.0036 15.9287 83.2811 15.5078C82.5585 15.0836 81.9951 14.482 81.5907 13.7031C81.1897 12.9209 80.9892 11.9929 80.9892 10.919C80.9892 10.0937 81.1085 9.35795 81.3471 8.71165C81.5891 8.06203 81.9271 7.51184 82.3613 7.06108C82.7955 6.61032 83.301 6.26728 83.8777 6.03196C84.4544 5.79664 85.0791 5.67898 85.752 5.67898C86.3287 5.67898 86.8656 5.76349 87.3627 5.93253C87.8599 6.09825 88.3007 6.33357 88.6852 6.63849C89.073 6.94342 89.3895 7.30634 89.6348 7.72727C89.88 8.14489 90.0375 8.60559 90.1071 9.10938H87.9196Z" fill="url(#paint3_linear_359_12486)"/>
<defs>
<linearGradient id="paint0_linear_359_12486" x1="0" y1="10.5003" x2="18.6959" y2="10.5003" gradientUnits="userSpaceOnUse">
<stop stop-color="#08CABC"/>
<stop offset="1" stop-color="#6E34BC"/>
</linearGradient>
<linearGradient id="paint1_linear_359_12486" x1="2.49805" y1="14.4831" x2="11.4611" y2="14.4831" gradientUnits="userSpaceOnUse">
<stop stop-color="#08CABC"/>
<stop offset="1" stop-color="#6E34BC"/>
</linearGradient>
<linearGradient id="paint2_linear_359_12486" x1="3.94922" y1="9.49626" x2="16.195" y2="9.49626" gradientUnits="userSpaceOnUse">
<stop stop-color="#08CABC"/>
<stop offset="1" stop-color="#6E34BC"/>
</linearGradient>
<linearGradient id="paint3_linear_359_12486" x1="24.6934" y1="10.5003" x2="91.7034" y2="10.5003" gradientUnits="userSpaceOnUse">
<stop stop-color="#08CABC"/>
<stop offset="1" stop-color="#6E34BC"/>
</linearGradient>
</defs>
</svg>
